<?xml version="1.0" encoding="UTF-8" standalone="no"?><svg xmlns="http://www.w3.org/2000/svg" xmlns:xlink="http://www.w3.org/1999/xlink" contentScriptType="application/ecmascript" contentStyleType="text/css" height="411px" preserveAspectRatio="none" style="width:226px;height:411px;" version="1.1" viewBox="0 0 226 411" width="226px" zoomAndPan="magnify"><defs><filter height="300%" id="f9401tpd6c28o" width="300%" x="-1" y="-1"><feGaussianBlur result="blurOut" stdDeviation="2.0"/><feColorMatrix in="blurOut" result="blurOut2" type="matrix" values="0 0 0 0 0 0 0 0 0 0 0 0 0 0 0 0 0 0 .4 0"/><feOffset dx="4.0" dy="4.0" in="blurOut2" result="blurOut3"/><feBlend in="SourceGraphic" in2="blurOut3" mode="normal"/></filter></defs><g><ellipse cx="112.5" cy="20" fill="#000000" filter="url(#f9401tpd6c28o)" rx="10" ry="10" style="stroke: none; stroke-width: 1.0;"/><rect fill="#FEFECE" filter="url(#f9401tpd6c28o)" height="35.0938" rx="12.5" ry="12.5" style="stroke: #A80036; stroke-width: 1.5;" width="180" x="22.5" y="50"/><text fill="#000000" font-family="sans-serif" font-size="12" lengthAdjust="spacingAndGlyphs" textLength="160" x="32.5" y="72.457">tap hamburger icon in navbar</text><rect fill="#FEFECE" filter="url(#f9401tpd6c28o)" height="35.0938" rx="12.5" ry="12.5" style="stroke: #A80036; stroke-width: 1.5;" width="205" x="10" y="105.0938"/><text fill="#000000" font-family="sans-serif" font-size="12" lengthAdjust="spacingAndGlyphs" textLength="185" x="20" y="127.5508">Choose 'Contract' from navdrawer</text><rect fill="#FEFECE" filter="url(#f9401tpd6c28o)" height="35.0938" rx="12.5" ry="12.5" style="stroke: #A80036; stroke-width: 1.5;" width="123" x="51" y="160.1875"/><text fill="#000000" font-family="sans-serif" font-size="12" lengthAdjust="spacingAndGlyphs" textLength="103" x="61" y="182.6445">Show Contract List</text><rect fill="#FEFECE" filter="url(#f9401tpd6c28o)" height="35.0938" rx="12.5" ry="12.5" style="stroke: #A80036; stroke-width: 1.5;" width="110" x="57.5" y="215.2813"/><text fill="#000000" font-family="sans-serif" font-size="12" lengthAdjust="spacingAndGlyphs" textLength="90" x="67.5" y="237.7383">tap '+' hover icon</text><rect fill="#FEFECE" filter="url(#f9401tpd6c28o)" height="35.0938" rx="12.5" ry="12.5" style="stroke: #A80036; stroke-width: 1.5;" width="114" x="55.5" y="270.375"/><text fill="#000000" font-family="sans-serif" font-size="12" lengthAdjust="spacingAndGlyphs" textLength="94" x="65.5" y="292.832">fill Contract detail</text><rect fill="#FEFECE" filter="url(#f9401tpd6c28o)" height="35.0938" rx="12.5" ry="12.5" style="stroke: #A80036; stroke-width: 1.5;" width="59" x="83" y="325.4688"/><text fill="#000000" font-family="sans-serif" font-size="12" lengthAdjust="spacingAndGlyphs" textLength="39" x="93" y="347.9258">Submit</text><ellipse cx="112.5" cy="390.5625" fill="#FFFFFF" filter="url(#f9401tpd6c28o)" rx="10" ry="10" style="stroke: #000000; stroke-width: 1.5;"/><line style="stroke: #000000; stroke-width: 2.5;" x1="106.3128" x2="118.6872" y1="384.3753" y2="396.7497"/><line style="stroke: #000000; stroke-width: 2.5;" x1="118.6872" x2="106.3128" y1="384.3753" y2="396.7497"/><line style="stroke: #A80036; stroke-width: 1.5;" x1="112.5" x2="112.5" y1="30" y2="50"/><polygon fill="#A80036" points="108.5,40,112.5,50,116.5,40,112.5,44" style="stroke: #A80036; stroke-width: 1.0;"/><line style="stroke: #A80036; stroke-width: 1.5;" x1="112.5" x2="112.5" y1="85.0938" y2="105.0938"/><polygon fill="#A80036" points="108.5,95.0938,112.5,105.0938,116.5,95.0938,112.5,99.0938" style="stroke: #A80036; stroke-width: 1.0;"/><line style="stroke: #A80036; stroke-width: 1.5;" x1="112.5" x2="112.5" y1="140.1875" y2="160.1875"/><polygon fill="#A80036" points="108.5,150.1875,112.5,160.1875,116.5,150.1875,112.5,154.1875" style="stroke: #A80036; stroke-width: 1.0;"/><line style="stroke: #A80036; stroke-width: 1.5;" x1="112.5" x2="112.5" y1="195.2813" y2="215.2813"/><polygon fill="#A80036" points="108.5,205.2813,112.5,215.2813,116.5,205.2813,112.5,209.2813" style="stroke: #A80036; stroke-width: 1.0;"/><line style="stroke: #A80036; stroke-width: 1.5;" x1="112.5" x2="112.5" y1="250.375" y2="270.375"/><polygon fill="#A80036" points="108.5,260.375,112.5,270.375,116.5,260.375,112.5,264.375" style="stroke: #A80036; stroke-width: 1.0;"/><line style="stroke: #A80036; stroke-width: 1.5;" x1="112.5" x2="112.5" y1="305.4688" y2="325.4688"/><polygon fill="#A80036" points="108.5,315.4688,112.5,325.4688,116.5,315.4688,112.5,319.4688" style="stroke: #A80036; stroke-width: 1.0;"/><line style="stroke: #A80036; stroke-width: 1.5;" x1="112.5" x2="112.5" y1="360.5625" y2="380.5625"/><polygon fill="#A80036" points="108.5,370.5625,112.5,380.5625,116.5,370.5625,112.5,374.5625" style="stroke: #A80036; stroke-width: 1.0;"/><!--
@startuml create-contract

start

:tap hamburger icon in navbar;
:Choose 'Contract' from navdrawer;
:Show Contract List;
:tap '+' hover icon;
:fill Contract detail;
:Submit;


end

@enduml

PlantUML version 1.2018.03(Thu Apr 05 23:59:15 ICT 2018)
(GPL source distribution)
Java Runtime: Java(TM) SE Runtime Environment
JVM: Java HotSpot(TM) 64-Bit Server VM
Java Version: 1.8.0_181-b13
Operating System: Windows 10
OS Version: 10.0
Default Encoding: MS874
Language: en
Country: US
--></g></svg>